<mxfile host="app.diagrams.net" modified="2023-11-02T05:51:26.847Z" agent="Mozilla/5.0 (Windows NT 10.0; Win64; x64) AppleWebKit/537.36 (KHTML, like Gecko) Chrome/118.0.0.0 Whale/3.23.214.10 Safari/537.36" version="22.0.8" etag="NHkOJGnMoivIvE1tllvl" type="github">
  <diagram name="페이지-1" id="D-pjBu_-_ysdk7DYY8an">
    <mxGraphModel>
      <root>
        <mxCell id="0" />
        <mxCell id="1" parent="0" />
      </root>
    </mxGraphModel>
  </diagram>
</mxfile>
